# xmcd
#
# Track frame offsets:
# 150
# 4668
# 21743
# 37352
# 45090
# 58239
# 68837
# 89714
# 109575
# 126811
#
# Disc length: 1995 seconds
#
# Revision: 0
# Processed by: cddbd v1.5.2PL0 Copyright (c) Steve Scherf et al.
# Submitted via: Audion 3.0.2 (http://www.panic.com/audion/)
#
DISCID=8b07c90a
DTITLE=R-WORLD  - R WORLD  TRAP CITY 7
DYEAR=1900
DGENRE=
TTITLE0=INTRO W GUCCI twitter @bamm20thcentury
TTITLE1=BIG HEAD HUNDREDS (FEEZY MIGO E BRO ) twitter @bamm20thcentury
TTITLE2=Love of Money - 'feezy, Yung Migo, Yung Mazi' - twitter @bamm20thcentury
TTITLE3=WIzard Of Oz's (Feezy)  twitter @bamm20thcentury
TTITLE4=How The Streets Made me (wld CHild and E.EBro) twitter @bamm20thcentury
TTITLE5=Trap City (Gucci Mane Freestyle) twitter @bamm20thcentury
TTITLE6=I need That Check (e.Bro, Feezy, WIld CHild, and J.Hard) twitter @bamm20thcentury
TTITLE7=Big Dogg'n (E/B ro and Feezy) twitter @bamm20thcentury
TTITLE8=I Love (so Icey Boi, Slim, Waka Flocka and Slim Dunk'n)  twitter @bamm20thcentury
TTITLE9=I GOT BELLS (Yung Mazi, Migo and Slim)
EXTD=
EXTT0=
EXTT1=
EXTT2=
EXTT3=
EXTT4=
EXTT5=
EXTT6=
EXTT7=
EXTT8=
EXTT9=
PLAYORDER=
